#!OML:ASF E:\emotionWalksFemale\Project 1\Capture day 1\Session 1\Female1.ASF
:FULLY-SPECIFIED
:DEGREES
399
root 8.80257 15.6222 -7.75024 -180.254 -3.74813 -179.006
lowerback 8.9318 1.77906 1.19977
upperback -4.15303 2.41315 -0.917952
thorax -9.35299 1.04075 -2.05525
lowerneck -8.26653 -3.98733 -7.99209
upperneck 7.8338 -5.02567 6.32678
head 4.05088 -2.41681 2.92772
rclavicle 2.1916e-014 -1.31198e-014
rhumerus -34.0344 13.753 -81.3303
rradius 49.9984
rwrist 12.4514
rhand -6.31133 -50.2421
rfingers 7.12502
rthumb 19.533 -79.2809
lclavicle 2.1916e-014 -1.31198e-014
lhumerus -32.9272 7.93112 72.282
lradius 51.2843
lwrist 2.2066
lhand -7.47365 -31.8953
lfingers 7.12502
lthumb 18.4152 -2.74702
rfemur 5.0668 19.7933 28.0288
rtibia 12.1547
rfoot -16.5779 -36.1387
rtoes 5.08925
lfemur -2.28759 -21.7933 -24.4689
ltibia 22.6042
lfoot -23.8272 23.3005
ltoes -18.6563
400
root 8.80394 15.6202 -7.74244 -180.339 -3.68545 -179.048
lowerback 8.9715 1.80587 1.11513
upperback -4.12431 2.43777 -0.937362
thorax -9.34652 1.05787 -2.03339
lowerneck -7.80818 -3.88807 -8.06403
upperneck 7.58452 -4.92329 6.46009
head 3.89694 -2.37014 2.99588
rclavicle -1.43373e-014 -1.19271e-015
rhumerus -33.9813 13.4927 -81.7546
rradius 49.8662
rwrist 12.0274
rhand -6.39457 -50.6975
rfingers 7.12502
rthumb 19.453 -79.7444
lclavicle -1.43373e-014 -1.19271e-015
lhumerus -32.8043 7.21427 72.8114
lradius 51.7795
lwrist 2.21397
lhand -7.35171 -31.9761
lfingers 7.12502
lthumb 18.5325 -2.83886
rfemur 5.09372 19.791 27.9978
rtibia 12.207
rfoot -16.3054 -36.1497
rtoes 4.41185
lfemur -2.19098 -21.8398 -24.559
ltibia 22.5743
lfoot -23.8325 23.4642
ltoes -19.0338
401
root 8.80519 15.622 -7.7313 -180.345 -3.58386 -179.083
lowerback 9.02794 1.86032 1.04586
upperback -4.15274 2.50063 -0.947228
thorax -9.41093 1.09054 -2.01869
lowerneck -8.56763 -4.07258 -7.71572
upperneck 8.66538 -5.13756 5.78579
head 4.34112 -2.49166 2.69917
rclavicle 8.10048e-015 3.57812e-015
rhumerus -34.0262 12.9159 -82.1748
rradius 49.6759
rwrist 11.9703
rhand -6.56599 -50.8511
rfingers 7.12502
rthumb 19.2882 -79.9146
lclavicle 8.10048e-015 3.57812e-015
lhumerus -32.6389 6.52864 73.3849
lradius 52.1155
lwrist 2.16608
lhand -7.48793 -31.9656
lfingers 7.12502
lthumb 18.4015 -2.81596
rfemur 5.01765 19.8796 27.9344
rtibia 12.243
rfoot -16.1825 -36.1196
rtoes 4.41421
lfemur -2.21832 -21.8513 -24.5972
ltibia 22.5638
lfoot -23.8547 23.591
ltoes -19.1806
402
root 8.80856 15.6243 -7.72332 -180.323 -3.54658 -179.105
lowerback 8.95837 1.90487 0.974021
upperback -4.25348 2.54186 -0.988201
thorax -9.47999 1.10962 -2.02866
lowerneck -8.53981 -4.03762 -7.76821
upperneck 9.20698 -5.12705 5.84301
head 4.50412 -2.49293 2.72428
rclavicle -1.71203e-014 1.27222e-014
rhumerus -34.1968 12.2358 -82.7309
rradius 49.351
rwrist 11.7223
rhand -6.85755 -50.9447
rfingers 7.12502
rthumb 19.0078 -80.036
lclavicle -1.71203e-014 1.27222e-014
lhumerus -32.7083 5.84519 73.8792
lradius 52.5524
lwrist 2.13166
lhand -7.67046 -31.7205
lfingers 7.12502
lthumb 18.2259 -2.5544
rfemur 4.94051 19.9493 27.9011
rtibia 12.2573
rfoot -16.1643 -36.1405
rtoes 4.52322
lfemur -2.27083 -21.8294 -24.5885
ltibia 22.568
lfoot -23.8762 23.5773
ltoes -19.2532
403
root 8.81186 15.6229 -7.71749 -180.393 -3.54154 -179.043
lowerback 8.86932 1.90961 0.977667
upperback -4.27731 2.54649 -0.987363
thorax -9.45324 1.11135 -2.02729
lowerneck -8.20407 -3.93952 -7.95251
upperneck 9.33591 -5.04218 6.10105
head 4.49266 -2.45412 2.84551
rclavicle 9.93923e-017 1.98785e-015
rhumerus -34.2963 11.6562 -83.2517
rradius 49.0428
rwrist 11.3167
rhand -6.83192 -51.3441
rfingers 7.12502
rthumb 19.0325 -80.4329
lclavicle 9.93923e-017 1.98785e-015
lhumerus -32.7963 5.50569 74.2948
lradius 52.9419
lwrist 1.90743
lhand -7.56035 -31.7938
lfingers 7.12502
lthumb 18.3318 -2.63761
rfemur 4.95277 19.7837 27.9695
rtibia 12.3192
rfoot -16.1222 -36.0241
rtoes 4.33544
lfemur -2.18941 -21.8633 -24.5341
ltibia 22.5437
lfoot -23.8686 23.5485
ltoes -18.8371
404
root 8.81351 15.6204 -7.7111 -180.461 -3.53554 -179.068
lowerback 8.79708 1.89004 0.924538
upperback -4.2132 2.51599 -0.973804
thorax -9.34433 1.10343 -1.97301
lowerneck -8.05407 -3.92356 -7.98371
upperneck 9.37817 -5.02052 5.99474
head 4.47714 -2.45398 2.82133
rclavicle 4.64659e-015 1.03368e-014
rhumerus -34.2451 11.0923 -83.6886
rradius 48.7197
rwrist 10.9408
rhand -6.99365 -51.4903
rfingers 7.12502
rthumb 18.8769 -80.5943
lclavicle 4.64659e-015 1.03368e-014
lhumerus -32.8792 5.48533 74.6913
lradius 53.3924
lwrist 1.40789
lhand -6.95823 -32.0716
lfingers 7.12502
lthumb 18.911 -2.97086
rfemur 4.95651 19.5564 27.9149
rtibia 12.4014
rfoot -16.1513 -35.8257
rtoes 4.11209
lfemur -2.10543 -21.9467 -24.5909
ltibia 22.5093
lfoot -23.9542 23.5121
ltoes -17.8041
405
root 8.81364 15.6198 -7.70417 -180.502 -3.45884 -179.203
lowerback 8.72702 1.86348 0.778273
upperback -4.09953 2.46402 -0.979483
thorax -9.18642 1.0915 -1.88228
lowerneck -8.53544 -3.87283 -8.32318
upperneck 9.931 -4.93571 6.29195
head 4.73669 -2.40509 2.96612
rclavicle 2.67365e-014 1.59028e-014
rhumerus -34.0161 10.5531 -84.1607
rradius 48.2396
rwrist 10.4016
rhand -7.67967 -51.2775
rfingers 7.12502
rthumb 18.217 -80.4445
lclavicle 2.67365e-014 1.59028e-014
lhumerus -32.9507 5.61552 75.0611
lradius 53.9583
lwrist 0.690115
lhand -6.29566 -31.9809
lfingers 7.12502
lthumb 19.5481 -2.94362
rfemur 4.95104 19.4563 27.7366
rtibia 12.4508
rfoot -16.2271 -35.6415
rtoes 4.10135
lfemur -2.05101 -22.0374 -24.7693
ltibia 22.4931
lfoot -24.2302 23.4116
ltoes -16.1754
